<svg width="209" height="36" viewBox="0 0 209 36" fill="none" xmlns="http://www.w3.org/2000/svg">
<path d="M192.993 23.6582V15.7117H179.452L171.505 23.6582H192.993Z" fill="#9B9B9B"/>
<path d="M208.25 3.95081H191.276L183.266 11.8973H208.25V3.95081Z" fill="#9B9B9B"/>
<path d="M163.622 31.6048L167.691 27.5361H181.423V35.4827H163.622V31.6048Z" fill="#9B9B9B"/>
<path d="M166.61 19.7803H175.383L183.393 11.8337H166.61V19.7803Z" fill="#9B9B9B"/>
<path d="M157.011 31.6047H163.622L171.505 23.6582H157.011V31.6047Z" fill="#9B9B9B"/>
<path d="M191.276 3.95081L187.208 8.01941H161.27V0.072876H191.276V3.95081Z" fill="#9B9B9B"/>
<path d="M20.8391 30.2061H8.37892L6.21745 35.5462H0.750244L12.2568 8.59155H17.0247L28.5313 35.5462H23.0005L20.8391 30.2061ZM19.1227 25.9468L14.609 14.9488L10.0954 25.9468H19.1227Z" fill="#9B9B9B"/>
<path d="M104.437 18.5089C106.026 16.1567 110.031 15.9024 111.684 15.9024V20.4796C109.65 20.4796 107.615 20.5432 106.407 21.4332C105.2 22.3232 104.564 23.5311 104.564 24.9932V35.5462H99.6051V15.9024H104.373L104.437 18.5089Z" fill="#9B9B9B"/>
<path d="M119.376 15.9024H114.418V35.5462H119.376V15.9024Z" fill="#9B9B9B"/>
<path d="M119.376 7.12939H114.418V12.978H119.376V7.12939Z" fill="#9B9B9B"/>
<path d="M143.979 7.12939V35.5462H139.211L139.084 32.5583C138.384 33.5755 137.494 34.4019 136.414 35.0376C135.333 35.6098 133.998 35.9276 132.472 35.9276C131.137 35.9276 129.866 35.6733 128.785 35.2283C127.641 34.7197 126.623 34.084 125.797 33.194C124.971 32.304 124.271 31.2233 123.826 30.0154C123.318 28.8075 123.127 27.409 123.127 25.8832C123.127 24.3575 123.381 22.9589 123.826 21.6874C124.335 20.416 124.971 19.3353 125.797 18.4453C126.623 17.5552 127.641 16.856 128.785 16.3474C129.929 15.8388 131.137 15.5845 132.472 15.5845C133.998 15.5845 135.269 15.8388 136.35 16.4109C137.431 16.9831 138.321 17.7459 139.02 18.8267V7.19295H143.979V7.12939ZM133.553 31.6683C135.206 31.6683 136.477 31.0962 137.494 30.0154C138.511 28.9347 139.02 27.4725 139.02 25.6925C139.02 23.9125 138.511 22.5139 137.494 21.3696C136.477 20.2888 135.206 19.7167 133.553 19.7167C131.963 19.7167 130.628 20.2888 129.675 21.3696C128.658 22.4503 128.149 23.9125 128.149 25.6925C128.149 27.4725 128.658 28.8711 129.675 29.9518C130.692 31.0961 131.963 31.6683 133.553 31.6683Z" fill="#9B9B9B"/>
<path d="M57.2024 20.3525H44.933V24.6118H51.9259C51.7352 26.7733 50.9088 28.4261 49.5102 29.7611C48.1116 31.0326 46.3315 31.6683 44.0429 31.6683C42.7715 31.6683 41.5636 31.414 40.5465 30.969C39.4657 30.524 38.5757 29.8883 37.8129 28.9983C37.05 28.1718 36.4778 27.1547 36.0328 25.9468C35.5878 24.7389 35.3971 23.4675 35.3971 22.0053C35.3971 20.5432 35.5878 19.2717 36.0328 18.0638C36.4143 16.856 37.05 15.9024 37.8129 15.0124C38.5757 14.1859 39.4657 13.5502 40.5465 13.0416C41.6272 12.5966 42.7715 12.3423 44.1065 12.3423C46.7766 12.3423 48.8109 12.978 50.2095 14.2495L53.5152 10.9438C51.0359 9.03659 47.8573 8.01941 44.1065 8.01941C42.0086 8.01941 40.1015 8.33729 38.385 9.03659C36.6686 9.73588 35.2064 10.6259 33.9985 11.8337C32.7906 13.0416 31.8371 14.5038 31.2014 16.2203C30.5656 17.9367 30.2478 19.8438 30.2478 21.8782C30.2478 23.9125 30.5656 25.8197 31.2649 27.5361C31.9642 29.2526 32.8542 30.7147 34.0621 31.9226C35.27 33.1305 36.7321 34.0841 38.4486 34.7198C40.165 35.4191 42.0722 35.737 44.1065 35.737C46.1408 35.737 47.9844 35.4191 49.6373 34.7198C51.2902 34.0205 52.6888 33.1305 53.8331 31.9226C54.9774 30.7147 55.8674 29.2526 56.5031 27.5361C57.1388 25.8197 57.4567 23.9125 57.4567 21.8782V21.0517C57.266 20.9246 57.2024 20.6067 57.2024 20.3525Z" fill="#9B9B9B"/>
<path d="M95.9815 20.3525H83.7121V24.6118H90.705C90.5143 26.7733 89.6879 28.4261 88.2893 29.7611C86.8907 31.0326 85.1106 31.6683 82.822 31.6683C81.5506 31.6683 80.3427 31.414 79.3256 30.969C78.2448 30.524 77.3548 29.8883 76.592 28.9983C75.8291 28.1718 75.257 27.1547 74.8119 25.9468C74.3669 24.7389 74.1762 23.4675 74.1762 22.0053C74.1762 20.5432 74.3669 19.2717 74.8119 18.0638C75.1934 16.856 75.8291 15.9024 76.592 15.0124C77.3548 14.1859 78.2448 13.5502 79.3256 13.0416C80.4063 12.5966 81.5506 12.3423 82.8856 12.3423C85.5557 12.3423 87.59 12.978 88.9886 14.2495L92.2943 10.9438C89.815 9.03659 86.6364 8.01941 82.8856 8.01941C80.7878 8.01941 78.8806 8.33729 77.1641 9.03659C75.4477 9.73588 73.9855 10.6259 72.7776 11.8337C71.5698 13.0416 70.6162 14.5038 69.9805 16.2203C69.3447 17.9367 69.0269 19.8438 69.0269 21.8782C69.0269 23.9125 69.3447 25.8197 70.044 27.5361C70.7433 29.2526 71.6334 30.7147 72.8412 31.9226C74.0491 33.1305 75.5112 34.0841 77.2277 34.7198C78.9441 35.4191 80.8513 35.737 82.8856 35.737C84.92 35.737 86.7636 35.4191 88.4164 34.7198C90.0693 34.0205 91.4679 33.1305 92.6122 31.9226C93.7565 30.7147 94.6465 29.2526 95.2822 27.5361C95.918 25.8197 96.2358 23.9125 96.2358 21.8782V21.0517C96.0451 20.9246 95.9815 20.6067 95.9815 20.3525Z" fill="#9B9B9B"/>
</svg>
