<?xml version="1.0" encoding="UTF-8" standalone="no"?>
<!-- Generator: Adobe Illustrator 26.5.0, SVG Export Plug-In . SVG Version: 6.00 Build 0)  -->

<svg
   viewBox="0 0 477.81055 651.07166"
   width="1em"
   height="1em"
   preserveAspectRatio="xMidYMid meet"
   version="1.1"
   id="svg261"
   sodipodi:docname="5f6c808112f8ca92f0e3d33b15945b95.svg"
   xmlns:inkscape="http://www.inkscape.org/namespaces/inkscape"
   xmlns:sodipodi="http://sodipodi.sourceforge.net/DTD/sodipodi-0.dtd"
   xmlns="http://www.w3.org/2000/svg"
   xmlns:svg="http://www.w3.org/2000/svg">
  <sodipodi:namedview
     id="namedview263"
     pagecolor="#ffffff"
     bordercolor="#666666"
     borderopacity="1.0"
     inkscape:pageshadow="2"
     inkscape:pageopacity="0.0"
     inkscape:pagecheckerboard="0" />
  <defs
     id="defs57">
    <clipPath
       id="__lottie_element_2">
      <rect
         width="1080"
         height="1080"
         x="0"
         y="0"
         id="rect2" />
    </clipPath>
    <clipPath
       id="__lottie_element_21">
      <path
         fill="#ffffff"
         clip-rule="nonzero"
         d="M 2.3840001,-28.673 C -5.902,-28.714001 -12.226,-24.150999 -14.073,-16.336 -3.812,-32.875999 9.8769999,-28.107 16.552,-18.492001 13.843,-23.636999 10.074,-28.635 2.3840001,-28.673"
         fill-opacity="1"
         id="path5" />
      <path
         fill="#ffffff"
         clip-rule="nonzero"
         d="m 13.6,20.745001 c -15.9380001,13.024 -27.656,2.313 -27.656,2.313 0,0 2.67,6.341999 12.118,6.056999 14.43,-0.435999 14.611,-4.51 15.538,-8.369999"
         fill-opacity="1"
         id="path7" />
    </clipPath>
    <linearGradient
       id="__lottie_element_23"
       spreadMethod="pad"
       gradientUnits="userSpaceOnUse"
       x1="17.528999"
       y1="-38.282001"
       x2="23.16"
       y2="23.792">
      <stop
         offset="0%"
         stop-color="rgb(122,128,124)"
         id="stop10" />
      <stop
         offset="50%"
         stop-color="rgb(89,92,90)"
         id="stop12" />
      <stop
         offset="100%"
         stop-color="rgb(56,56,56)"
         id="stop14" />
    </linearGradient>
    <clipPath
       id="__lottie_element_37">
      <path
         fill="#ffffff"
         clip-rule="nonzero"
         d="M -9.7779999,-27.923 C -12.7,-27.167999 -18.291,-22.469 -18.624001,-16.802999 -6.6880002,-34.838001 8.8760004,-21.472 8.8760004,-21.472 c 0,0 -3.4130006,-10.386999 -18.6540003,-6.451"
         fill-opacity="1"
         id="path17" />
      <path
         fill="#ffffff"
         clip-rule="nonzero"
         d="m 20.237,15.902 c 0,0 -12.3340001,20.950001 -30.0049996,4.362 C -8.9049997,26.124001 -10.005,30.931 6.9850001,28.381001 23.879,25.844999 20.237,15.902 20.237,15.902"
         fill-opacity="1"
         id="path19" />
    </clipPath>
    <linearGradient
       id="__lottie_element_39"
       spreadMethod="pad"
       gradientUnits="userSpaceOnUse"
       x1="19.481001"
       y1="-29.629999"
       x2="24.691999"
       y2="27.813999">
      <stop
         offset="0%"
         stop-color="rgb(122,128,124)"
         id="stop22" />
      <stop
         offset="50%"
         stop-color="rgb(89,92,90)"
         id="stop24" />
      <stop
         offset="100%"
         stop-color="rgb(56,56,56)"
         id="stop26" />
    </linearGradient>
    <linearGradient
       id="__lottie_element_74"
       spreadMethod="pad"
       gradientUnits="userSpaceOnUse"
       x1="17.360001"
       y1="46.064999"
       x2="8.2069998"
       y2="-54.837002">
      <stop
         offset="0%"
         stop-color="rgb(184,184,184)"
         id="stop29" />
      <stop
         offset="50%"
         stop-color="rgb(172,174,171)"
         id="stop31" />
      <stop
         offset="100%"
         stop-color="rgb(160,164,159)"
         id="stop33" />
    </linearGradient>
    <linearGradient
       id="__lottie_element_78"
       spreadMethod="pad"
       gradientUnits="userSpaceOnUse"
       x1="3.2969999"
       y1="-8.4879999"
       x2="2.7479999"
       y2="41.075001">
      <stop
         offset="0%"
         stop-color="rgb(122,128,124)"
         id="stop36" />
      <stop
         offset="50%"
         stop-color="rgb(141,146,142)"
         id="stop38" />
      <stop
         offset="100%"
         stop-color="rgb(160,164,159)"
         id="stop40" />
    </linearGradient>
    <linearGradient
       id="__lottie_element_91"
       spreadMethod="pad"
       gradientUnits="userSpaceOnUse"
       x1="-4.256"
       y1="-54.833"
       x2="10.333"
       y2="47.876999">
      <stop
         offset="0%"
         stop-color="rgb(122,128,124)"
         id="stop43" />
      <stop
         offset="50%"
         stop-color="rgb(89,92,90)"
         id="stop45" />
      <stop
         offset="100%"
         stop-color="rgb(56,56,56)"
         id="stop47" />
    </linearGradient>
    <linearGradient
       id="__lottie_element_95"
       spreadMethod="pad"
       gradientUnits="userSpaceOnUse"
       x1="31.266001"
       y1="-53"
       x2="0.80299997"
       y2="31.451">
      <stop
         offset="0%"
         stop-color="rgb(122,128,124)"
         id="stop50" />
      <stop
         offset="50%"
         stop-color="rgb(89,92,90)"
         id="stop52" />
      <stop
         offset="100%"
         stop-color="rgb(56,56,56)"
         id="stop54" />
    </linearGradient>
  </defs>
  <g
     clip-path="url(#__lottie_element_2)"
     id="g259"
     transform="translate(-302.24826,-215.10535)">
    <g
       transform="matrix(-0.7632302,1.9748777,1.9748777,0.7632302,462.29047,578.8139)"
       opacity="1"
       style="display:block"
       id="g63">
      <g
         opacity="1"
         id="g61">
        <path
           fill="url(#__lottie_element_95)"
           fill-opacity="1"
           d="M -91.644997,-48.098 C 104.359,-80.783997 91.644997,8.8219995 91.644997,8.8219995 84.471001,7.3759999 9.3129997,-16.025999 -91.644997,-48.098 Z"
           id="path59"
           style="fill:url(#__lottie_element_95)" />
      </g>
    </g>
    <g
       transform="matrix(-0.72975773,-1.9874899,-1.9874899,0.72975773,604.65076,582.70544)"
       opacity="1"
       style="display:block"
       id="g69">
      <g
         opacity="1"
         id="g67">
        <path
           fill="url(#__lottie_element_91)"
           fill-opacity="1"
           d="M 90.943001,-49.396 C -113.617,-92.656998 -90.943001,11.864 -90.943001,11.864 -54.576,-5.033 41.150002,-34.959 90.943001,-49.396 Z"
           id="path65"
           style="fill:url(#__lottie_element_91)" />
      </g>
    </g>
    <g
       transform="matrix(-2.1138685,0.1192569,0.1192569,2.1138685,412.72278,294.85574)"
       opacity="1"
       style="display:block"
       id="g75">
      <g
         opacity="1"
         id="g73">
        <path
           fill="#cbd1d5"
           fill-opacity="1"
           d="M 50.325001,-34.330002 C 36.277,-30.485001 23.256001,-25.073 11.878,-16.392 c -14.575,10.958 -23.863,28.447 -22.1,46.402 0.164,1.371001 0.2860001,2.706 0.7329997,3.941 0,0 0.036,0.089 0.036,0.089 0.011,0.007 0.066,0.034 0.079001,0.042 0,0 0.007,0.012 0.01,-0.004 0,0 0.009,-0.085 0.009,-0.085 0,0 0.016,-0.171001 0.016,-0.171001 0,0 -40.9860017,1.075 -40.9860017,1.075 0.009,-0.348999 0.03,-0.802997 0.074,-1.148998 C -47.598999,15.499 -37.834,-1.71 -24.183001,-13.819 c 20.0900011,-18.027001 48.615,-22.904999 74.508002,-20.511002 0,0 0,0 0,0 z"
           id="path71" />
      </g>
    </g>
    <g
       transform="matrix(-2.1138685,0.1192569,0.1192569,2.1138685,665.33936,306.02472)"
       opacity="1"
       style="display:block"
       id="g81">
      <g
         opacity="1"
         id="g79">
        <path
           fill="#cbd1d5"
           fill-opacity="1"
           d="m -55.731998,-25.916 c 25.041997,-7.013001 53.975998,-7.349999 76.982997,6.769001 15.608002,9.4549986 28.307999,24.6259991 34.202,42.099998 0,0 0.119,0.419001 0.119,0.419001 0,0 0.031,0.113001 0.031,0.113001 0,0 0.044,0.194999 0.044,0.194999 0,0 0.085,0.389 0.085,0.389 0,0 -40.510998,6.317999 -40.510998,6.317999 0,0 0.047,0.166 0.047,0.166 0,0 0.024,0.082 0.024,0.082 0.006,0.016 0.01,0.002 0.01,0.002 0.018,-0.019 0.053,-0.037 0.071,-0.055 0,0 0.02,-0.095 0.02,-0.095 0.217,-1.296999 0.097,-2.630999 0.012,-4.008999 C 13.909,8.4989996 1.622,-7.033 -14.686,-15.189 c -12.755,-6.492 -26.535001,-9.473001 -41.045998,-10.727 0,0 0,0 0,0 z"
           id="path77" />
      </g>
    </g>
    <g
       transform="matrix(1.8482668,1.0327498,-1.0327498,1.8482668,696.34882,-1005.9799)"
       opacity="1"
       style="display:block"
       id="g95">
      <g
         opacity="1"
         transform="translate(337.99399,779.72198)"
         id="g85">
        <path
           fill="#a0a49f"
           fill-opacity="1"
           d="M -0.85600001,-31.639 C 1.8430001,-23.843 3.4920001,-16.921 8.4890003,-10.679 13.325,-4.7880001 18.382,2.0969999 19.502001,10.055 20.458,14.708 19.931999,19.693001 17.153,23.809 8.7299995,36.144001 -10.865,32.945 -17.253,20.905001 -19.589001,16.73 -20.291,12.12 -19.787001,7.8800001 -17.923,11.737 -15.626,15.077 -12.805,17.361 c 4.7330005,4.09 12.4,5.212999 17.173,1.879 2.296,-1.593001 2.52,-3.871 1.7280002,-6.307 C 4.5240002,6.4450002 0.58899999,1.545 -2.217,-4.6609998 -6.1500001,-13.191 -5.4000001,-23.589001 -0.85600001,-31.639 c 0,0 0,0 0,0 z"
           id="path83" />
      </g>
      <g
         opacity="1"
         transform="translate(351.12399,795.91901)"
         id="g89">
        <path
           fill="#a0a49f"
           fill-opacity="1"
           d="M -8.908,-22.040001 C -0.111,-17.783001 6.2410002,-9.7700005 8.3719997,-0.046 10.88,10.589 4.4380002,23.184 -7.6550002,21.957001 -4.6020002,18.962 -2.1670001,15.914 -1.26,12.062 -0.5,8.6719999 -0.75,5.3639998 -1.434,1.906 c -1.6099999,-8.0729998 -5.2329998,-15.455 -7.474,-23.946001 0,0 0,0 0,0 z"
           id="path87" />
      </g>
      <g
         opacity="1"
         transform="translate(351.32001,778.216)"
         id="g93">
        <path
           fill="#a0a49f"
           fill-opacity="1"
           d="m -14.182,-30.134001 c 5.7200001,10.135 8.4399999,19.349001 16.267,27.262001 8.312,7.9620002 17.446,15.042 14.39,28.437001 -0.363,1.586999 -0.94,3.109998 -1.675,4.569 C 12.045,24.996 9.9980001,20.552999 5.5710001,17.176001 1.331,13.91 -3.8239999,11.231 -7.9450002,6.8930001 -17.459,-2.6789999 -19.545,-17.966999 -14.182,-30.134001 c 0,0 0,0 0,0 z"
           id="path91" />
      </g>
    </g>
    <g
       transform="matrix(-2.1125629,0.14050144,0.14050144,2.1125629,538.34595,658.76758)"
       opacity="1"
       style="display:block"
       id="g101">
      <g
         opacity="1"
         id="g99">
        <path
           fill="url(#__lottie_element_78)"
           fill-opacity="1"
           d="m 30.098,27.801001 c -9.81,13.109998 -37.177,15.933 -50.859999,3.852998 C -29.767,23.704 -26.399,14.773 -38.500999,-12.327 -52.112,-42.806 48.134998,-50.640999 39.209999,-19.375999 31.448999,7.8109999 37.294998,18.184 30.098,27.801001 Z"
           id="path97"
           style="fill:url(#__lottie_element_78)" />
      </g>
    </g>
    <g
       transform="matrix(-2.1125629,0.14050144,0.14050144,2.1125629,529.15198,487.44299)"
       opacity="1"
       style="display:block"
       id="g107">
      <g
         opacity="1"
         id="g105">
        <path
           fill="#a0a49f"
           fill-opacity="1"
           d="m 34.011002,59.451 c 0,0 -0.805001,0.272 -0.805001,0.272 0,0 -55.142002,7.578003 -55.142002,7.578003 0,0 -6.827999,-1.311005 -6.827999,-1.311005 C -48.842999,62.136002 -62.743,43.706001 -60.929001,23.341 c 0,0 6.883,-77.284001 6.883,-77.284001 0,0 5.388,-8.718998 45.9580007,-12.399002 39.2190013,-3.557999 47.4400013,3.927002 47.4400013,3.927002 0,0 20.292,73.541001 20.292,73.541001 5.617001,20.357 -5.629002,41.559001 -25.632999,48.325 z"
           id="path103" />
      </g>
    </g>
    <g
       transform="matrix(-2.1125629,0.14050144,0.14050144,2.1125629,524.58698,519.36725)"
       opacity="1"
       style="display:block"
       id="g113">
      <g
         opacity="1"
         id="g111">
        <path
           fill="url(#__lottie_element_74)"
           fill-opacity="1"
           d="m 40.339001,40.511002 c 0,0 -9.009001,18.997997 -38.860001,21.705997 -28.611,2.594997 -41.818001,-14.386997 -41.818001,-14.386997 0,0 35.9400008,-42.435002 27.452001,-106.424004 C -13.509,-63.283001 -5.651,-64 -5.224,-59.289001 0.67299998,5.723 40.339001,40.511002 40.339001,40.511002 Z"
           id="path109"
           style="fill:url(#__lottie_element_74)" />
      </g>
    </g>
    <g
       transform="matrix(-2.1138685,0.1192569,0.1192569,2.1138685,504.63019,589.77747)"
       opacity="1"
       style="display:block"
       id="g119">
      <g
         opacity="1"
         id="g117">
        <path
           fill="#0b0f0d"
           fill-opacity="1"
           d="M 3.4790001,-6.0289998 C 3.7609999,-1.5 1.494,4.888 -3.369,6.1170001 c -0.09,0.022 -0.1679999,-0.083 -0.1170001,-0.1620002 C -1.9220001,2.6830001 0.949,0.68099999 2.28,-2.675 2.789,-3.727 3.033,-4.8709998 3.2809999,-6.0430002 3.3,-6.152 3.477,-6.1440001 3.4790001,-6.0289998 c 0,0 0,0 0,0 z"
           id="path115" />
      </g>
    </g>
    <g
       transform="matrix(-2.1138685,0.1192569,0.1192569,2.1138685,554.09576,591.4635)"
       opacity="1"
       style="display:block"
       id="g125">
      <g
         opacity="1"
         id="g123">
        <path
           fill="#0b0f0d"
           fill-opacity="1"
           d="m -4.3210001,-5.3449998 c 0.816,2.2029998 2.105,4.1429998 3.77700007,5.76099981 C 1.294,1.951 2.987,3.2520001 4.4949999,5.2379999 4.552,5.3060002 4.494,5.4200001 4.4050002,5.4130001 1.752,5.2709999 -0.34099999,3.582 -1.748,1.469 c -1.5210001,-1.94399999 -2.5140001,-4.3360001 -2.7690002,-6.772 -0.015,-0.1150002 0.1610003,-0.157 0.1960001,-0.042 0,0 0,0 0,2e-7 z"
           id="path121" />
      </g>
    </g>
    <g
       transform="matrix(-2.1138685,0.1192569,0.1192569,2.1138685,533.57715,639.9939)"
       opacity="1"
       style="display:block"
       id="g131">
      <g
         opacity="1"
         id="g129">
        <path
           fill="#0b0f0d"
           fill-opacity="1"
           d="M -31.636999,-3.8069999 C -18.124001,6.9299998 0.755,5.3990002 16.396,0.852 c 5.325001,-1.51999998 10.591,-3.4849999 15.257,-6.6159999 0.088,-0.067 0.214001,0.072 0.128,0.1519999 -1.975,2.0839999 -4.412001,3.641 -6.906999,5.03200002 C 12.986,5.744 -3.7980001,7.4380002 -16.797001,4.1209998 -22.264,2.6010001 -27.577999,0.178 -31.778,-3.665 c -0.096,-0.087 0.049,-0.2409999 0.141001,-0.1419999 0,0 0,0 0,0 z"
           id="path127" />
      </g>
    </g>
    <g
       transform="matrix(2.1017208,-0.25597396,0.25597396,2.1017208,499.52826,286.02634)"
       opacity="1"
       style="display:block"
       id="g137">
      <g
         opacity="1"
         id="g135">
        <path
           fill="#a0a49f"
           fill-opacity="1"
           d="M 24.923,37.005001 C 38.466,-21.497 -26.773001,-37.005001 -26.773001,-37.005001 c 0,0 51.696001,74.010002 51.696001,74.010002 z"
           id="path133" />
      </g>
    </g>
    <g
       transform="matrix(2.1017208,-0.25597396,0.25597396,2.1017208,480.79443,309.88644)"
       opacity="1"
       style="display:block"
       id="g143">
      <g
         opacity="1"
         id="g141">
        <path
           fill="#a0a49f"
           fill-opacity="1"
           d="m 36.712002,26.396 c -6.749003,-59.668999 -73.424004,-52.525 -73.424004,-52.525 0,0 73.424004,52.525 73.424004,52.525 z"
           id="path139" />
      </g>
    </g>
    <g
       transform="matrix(2.1017208,-0.25597396,0.25597396,2.1017208,490.58221,331.24985)"
       opacity="1"
       style="display:block"
       id="g149">
      <g
         opacity="1"
         id="g147">
        <path
           fill="#a0a49f"
           fill-opacity="1"
           d="M 30.472,16.608999 C 18.917999,-27.552 -30.472,-14.942 -30.472,-14.942 c 0,0 60.944,31.550999 60.944,31.550999 z"
           id="path145" />
      </g>
    </g>
    <g
       transform="matrix(-2.1125629,0.14050144,0.14050144,2.1125629,476.08139,429.19116)"
       opacity="0.29"
       style="display:block"
       id="g155">
      <g
         opacity="1"
         id="g153">
        <path
           fill="#6c706d"
           fill-opacity="1"
           d="M 21.219999,-7.4860001 C 27.004,8.9110003 22.194,25.556 10.474,29.690001 -1.2460001,33.824001 -15.436,23.882999 -21.219999,7.4860001 -27.004,-8.9110003 -22.194,-25.556 -10.474,-29.690001 c 11.7200001,-4.134 25.91,5.807002 31.693999,22.2040009 z"
           id="path151" />
      </g>
    </g>
    <g
       transform="matrix(-2.1125629,0.14050144,0.14050144,2.1125629,591.46002,431.96585)"
       opacity="0.29"
       style="display:block"
       id="g161">
      <g
         opacity="1"
         id="g159">
        <path
           fill="#6c706d"
           fill-opacity="1"
           d="M -22.221001,-3.5450001 C -24.959999,13.626 -17.232,29.132 -4.96,31.09 7.3119998,33.048 19.482,20.716 22.221001,3.5450001 24.959999,-13.626 17.232,-29.132 4.96,-31.09 -7.3119998,-33.048 -19.482,-20.716 -22.221001,-3.5450001 Z"
           id="path157" />
      </g>
    </g>
    <g
       transform="matrix(-2.1138685,0.1192569,0.1192569,2.1138685,1156.5413,-893.8053)"
       opacity="1"
       style="display:block"
       id="g171">
      <g
         opacity="1"
         transform="translate(351.27701,620.39301)"
         id="g165">
        <path
           fill="#0b0f0d"
           fill-opacity="1"
           d="m -13.756,-12.106 c 1.067,2.9230004 2.488,6.3480001 4.0309996,9.0190001 C -9.2749996,-2.3900001 -8.1960001,-0.64899999 -7.7620001,0.02 -7.013,0.93300003 -6.2259998,1.967 -5.4640002,2.855 -0.479,8.132 6.6220002,11.156 13.843,11.28 c 0.111,-0.017 0.156,0.166 0.041,0.196 C 10.637,12.538 7.0409999,12.323 3.7409999,11.298 -1.671,9.5889997 -5.7350001,5.2810001 -8.7799997,0.70099998 -9.1879997,-0.006 -10.197,-1.887 -10.608,-2.619 c -1.348,-2.8379998 -2.502,-6.4030003 -3.339,-9.431 -0.032,-0.116 0.151,-0.187 0.191,-0.056 0,0 0,0 0,0 z"
           id="path163" />
      </g>
      <g
         opacity="1"
         transform="translate(348.95901,623.38898)"
         id="g169">
        <path
           fill="#0b0f0d"
           fill-opacity="1"
           d="m -11.438,-15.102 c 2.1580003,6.0650003 4.8539999,12.3269999 8.6470001,17.52 C 1.101,7.5139999 5.697,12.25 11.564,14.973 c 0.109,0.025 0.085,0.211 -0.033,0.197 -12.06099997,-1.607 -18.3559998,-15.162 -21.819,-25.447 0,0 -1.342,-4.769 -1.342,-4.769 -0.034,-0.116 0.155,-0.183 0.192,-0.056 0,0 0,0 0,0 z"
           id="path167" />
      </g>
    </g>
    <g
       transform="matrix(-2.1125629,0.14050144,0.14050144,2.1125629,477.76843,423.16306)"
       opacity="1"
       style="display:block"
       id="g177">
      <g
         opacity="1"
         id="g175">
        <path
           fill="#ffffff"
           fill-opacity="1"
           d="M 17.479,-6.1659999 C 22.243,7.3400002 18.280001,21.049999 8.6269999,24.455 -1.026,27.860001 -12.715,19.672001 -17.479,6.1659999 -22.243,-7.3400002 -18.280001,-21.049999 -8.6269999,-24.455 1.026,-27.860001 12.715,-19.672001 17.479,-6.1659999 Z"
           id="path173" />
      </g>
    </g>
    <g
       transform="matrix(-2.1125629,0.14050144,0.14050144,2.1125629,1142.4825,-902.1427)"
       opacity="1"
       style="display:block"
       id="g187">
      <g
         opacity="1"
         transform="translate(347.14899,613.31097)"
         id="g181">
        <path
           fill="#0b0f0d"
           fill-opacity="1"
           d="M 4.395,-1.73 C 5.8520002,1.971 5.066,5.7459998 2.638,6.7020001 0.20999999,7.658 -2.938,5.4310002 -4.395,1.73 -5.8520002,-1.971 -5.066,-5.7459998 -2.638,-6.7020001 -0.20999999,-7.658 2.938,-5.4310002 4.395,-1.73 Z"
           id="path179" />
      </g>
      <g
         opacity="1"
         transform="translate(348.02399,608.979)"
         id="g185">
        <path
           fill="#ffffff"
           fill-opacity="1"
           d="m 1.572,-0.61900002 c 0.5209999,1.324 0.24,2.67400012 -0.62799999,3.01600012 C 0.076,2.7390001 -1.051,1.943 -1.572,0.61900002 c -0.5209999,-1.324 -0.24,-2.67400012 0.62799999,-3.01600012 C -0.076,-2.7390001 1.051,-1.943 1.572,-0.61900002 Z"
           id="path183" />
      </g>
    </g>
    <g
       clip-path="url(#__lottie_element_37)"
       transform="matrix(-2.1125629,0.14050144,0.14050144,2.1125629,477.76843,423.16306)"
       opacity="1"
       style="display:block"
       id="g193">
      <g
         opacity="1"
         id="g191">
        <path
           fill="url(#__lottie_element_39)"
           fill-opacity="1"
           d="M 17.479,-6.1659999 C 22.243,7.3400002 18.280001,21.049999 8.6269999,24.455 -1.026,27.860001 -12.715,19.672001 -17.479,6.1659999 -22.243,-7.3400002 -18.280001,-21.049999 -8.6269999,-24.455 1.026,-27.860001 12.715,-19.672001 17.479,-6.1659999 Z"
           id="path189"
           style="fill:url(#__lottie_element_39)" />
      </g>
    </g>
    <g
       style="display:none"
       transform="matrix(-2.1072993,-0.20482242,-0.20482242,2.1072993,510.47913,392.52896)"
       opacity="0.48981"
       id="g199">
      <g
         opacity="1"
         id="g197">
        <path
           fill="#0b0f0d"
           fill-opacity="1"
           d="M 8.7779999,-9.3459997 C -4.0120001,-18.885 -13.552,-5.9920001 -13.379,-6.151 -2.6670001,-16.004999 8.8830004,-9.29 8.7779999,-9.3459997 Z"
           id="path195" />
      </g>
    </g>
    <g
       transform="matrix(-2.1138685,0.1192569,0.1192569,2.1138685,1155.5388,-896.8031)"
       opacity="1"
       style="display:block"
       id="g209">
      <g
         opacity="1"
         transform="translate(308.36499,624.00098)"
         id="g203">
        <path
           fill="#0b0f0d"
           fill-opacity="1"
           d="m 11.613,-14.084 c -0.279,3.139 -0.773,6.8499998 -1.587,9.8780001 C 9.7440004,-3.398 9.1000004,-1.387 8.8249998,-0.611 6.6539998,4.4419999 3.431,9.4119997 -1.585,12.066 c -3.0619998,1.602 -6.5609999,2.461 -9.946,2 -0.112,-0.016 -0.113,-0.191 0.005,-0.2 6.3119998,-1.27 12.035,-4.7490004 16.079,-9.787 0,0 1.3969998,-1.974 1.3969998,-1.974 C 6.539,1.096 7.131,-0.068 7.7010002,-1.098 8.0059996,-1.827 8.7650003,-3.7550001 9.073,-4.5079999 c 0.5249996,-1.5490003 0.951,-3.1399999 1.412,-4.7240005 0,0 0.929,-4.8719996 0.929,-4.8719996 0.007,-0.12 0.218,-0.116 0.199,0.02 0,0 0,0 0,0 z"
           id="path201" />
      </g>
      <g
         opacity="1"
         transform="translate(311.24399,626.81201)"
         id="g207">
        <path
           fill="#0b0f0d"
           fill-opacity="1"
           d="m 8.7340002,-16.895 c -0.862,11.7680001 -4.5140004,29.819 -17.3460007,33.892 -0.1099996,0.027 -0.1749992,-0.136 -0.068,-0.188 9.23000031,-6.77 14.0900001,-17.91 16.3590002,-28.868 0,0 0.8559999,-4.856001 0.8559999,-4.856001 0.009,-0.120998 0.2160006,-0.110998 0.1990004,0.02 0,0 0,0 0,0 z"
           id="path205" />
      </g>
    </g>
    <g
       transform="matrix(-2.1125629,0.14050144,0.14050144,2.1125629,590.06543,425.86475)"
       opacity="1"
       style="display:block"
       id="g215">
      <g
         opacity="1"
         id="g213">
        <path
           fill="#ffffff"
           fill-opacity="1"
           d="M -18.302999,-2.9200001 C -20.559,11.223 -14.193,23.995001 -4.085,25.608 6.0229998,27.221001 16.047001,17.063 18.302999,2.9200001 20.559,-11.223 14.193,-23.995001 4.085,-25.608 c -10.1079998,-1.613001 -20.132001,8.545 -22.387999,22.6879999 z"
           id="path211" />
      </g>
    </g>
    <g
       transform="matrix(-2.1125629,0.14050144,0.14050144,2.1125629,1142.4824,-902.14282)"
       opacity="1"
       style="display:block"
       id="g225">
      <g
         opacity="1"
         transform="translate(310.88699,615.638)"
         id="g219">
        <path
           fill="#0b0f0d"
           fill-opacity="1"
           d="M -4.6350002,-0.91100001 C -5.402,2.9920001 -3.9489999,6.5640001 -1.3890001,7.0669999 1.171,7.5700002 3.868,4.8140001 4.6350002,0.91100001 5.402,-2.9920001 3.9489999,-6.5640001 1.3890001,-7.0669999 -1.171,-7.5700002 -3.868,-4.8140001 -4.6350002,-0.91100001 Z"
           id="path217" />
      </g>
      <g
         opacity="1"
         transform="translate(309.246,611.534)"
         id="g223">
        <path
           fill="#ffffff"
           fill-opacity="1"
           d="M -1.658,-0.32600001 C -1.932,1.0700001 -1.413,2.348 -0.49700001,2.5280001 0.419,2.7079999 1.3839999,1.722 1.658,0.32600001 1.932,-1.0700001 1.413,-2.348 0.49700001,-2.5280001 -0.419,-2.7079999 -1.3839999,-1.722 -1.658,-0.32600001 Z"
           id="path221" />
      </g>
    </g>
    <g
       clip-path="url(#__lottie_element_21)"
       transform="matrix(-2.1125629,0.14050144,0.14050144,2.1125629,590.06543,425.86475)"
       opacity="1"
       style="display:block"
       id="g231">
      <g
         opacity="1"
         id="g229">
        <path
           fill="url(#__lottie_element_23)"
           fill-opacity="1"
           d="M -18.302999,-2.9200001 C -20.559,11.223 -14.193,23.995001 -4.085,25.608 6.0229998,27.221001 16.047001,17.063 18.302999,2.9200001 20.559,-11.223 14.193,-23.995001 4.085,-25.608 c -10.1079998,-1.613001 -20.132001,8.545 -22.387999,22.6879999 z"
           id="path227"
           style="fill:url(#__lottie_element_23)" />
      </g>
    </g>
    <g
       style="display:none"
       transform="matrix(-2.1072993,-0.20482242,-0.20482242,2.1072993,614.07935,435.18646)"
       opacity="0.48981"
       id="g237">
      <g
         opacity="1"
         id="g235">
        <path
           fill="#0b0f0d"
           fill-opacity="1"
           d="M 12.707,-19.398001 C -0.062,-27.667999 -10.575,-17.625 -10.494,-17.709 0.118,-30.754 12.707,-19.398001 12.707,-19.398001 Z"
           id="path233" />
      </g>
    </g>
    <g
       transform="matrix(-1.1517931,1.7765234,1.7765234,1.1517931,-155.77545,-918.86792)"
       opacity="1"
       style="display:block"
       id="g247">
      <g
         opacity="1"
         transform="translate(344.21399,580.73199)"
         id="g241">
        <path
           fill="#0b0f0d"
           fill-opacity="1"
           d="m -12.745,7.7119999 c 0.211,-2.9039998 1.362,-5.461 3.113,-7.6929999 1.6180001,-2.2569999 4.3210001,-3.345 6.6629999,-4.6389999 C 1.756,-7.0359998 7.1630001,-8.5819998 12.485,-7.948 c 0.165,0.022 0.281,0.1739998 0.259,0.3389998 C 12.725,-7.4689999 12.616,-7.3699999 12.484,-7.348 10.06,-6.7620001 7.75,-5.7880001 5.6230001,-4.618 1.865,-2.7 -1.274,0.093 -4.0780001,3.1930001 -6.5780001,5.2950001 -9.0749998,6.895 -12.261,8.066 c -0.235,0.095 -0.506,-0.1 -0.484,-0.3540001 0,0 0,0 0,0 z"
           id="path239" />
      </g>
      <g
         opacity="1"
         transform="translate(343.53699,578.95502)"
         id="g245">
        <path
           fill="#0b0f0d"
           fill-opacity="1"
           d="m -11.726,8.6789999 c 0.146,-2.823 1.185,-5.303 2.7389995,-7.5439999 C -7.539,-1.072 -5.0840001,-2.309 -2.9330001,-3.727 -1.847,-4.4299998 -0.73799998,-5.1040001 0.40900001,-5.7080002 3.845,-7.448 7.5450001,-8.8520002 11.419,-9.0550003 c 0.339,-0.016999 0.433,0.4900007 0.105,0.5910006 C 6.1859999,-5.8600001 1.429,-1.982 -2.1570001,2.734 -4.553,5.6630001 -7.5960002,7.6830001 -11.242,9.033 c -0.234,0.089 -0.5,-0.1029997 -0.484,-0.3540001 0,0 0,0 0,0 z"
           id="path243" />
      </g>
    </g>
    <g
       transform="matrix(-1.6028291,-1.3833297,-1.3833297,1.6028291,1889.8254,-146.56744)"
       opacity="1"
       style="display:block"
       id="g257">
      <g
         opacity="1"
         transform="translate(307.97101,583.37701)"
         id="g251">
        <path
           fill="#0b0f0d"
           fill-opacity="1"
           d="M 13.082,6.8429999 C 9.7869997,6.0380001 7.1230001,4.7259998 4.4050002,2.9170001 2.9679999,1.872 1.755,0.54900002 0.266,-0.43799999 -3.8510001,-3.0280001 -8.3409996,-5.0679998 -13.233,-5.7059999 c -0.176,-0.007 -0.319,-0.1630001 -0.294,-0.341 0.016,-0.1269999 0.109,-0.2249999 0.226,-0.2550001 5.2179998,-1.225 10.7640001,-0.2940002 15.7299999,1.578 C 5.5970001,-3.5539999 8.967,-2.2650001 10.911,0.69099998 12.212,2.402 13.117,4.2410002 13.523,6.4369998 c 0.05,0.25 -0.196,0.4750004 -0.441,0.4060001 0,0 0,0 0,0 z"
           id="path249" />
      </g>
      <g
         opacity="1"
         transform="translate(308.43799,581.72601)"
         id="g255">
        <path
           fill="#0b0f0d"
           fill-opacity="1"
           d="M 12.185,7.7280002 C 9.4820004,7.1490002 7.362,6.0159998 5.1529999,4.6859999 3.096,3.4949999 1.74,1.493 -0.084,0.023 -3.822,-2.941 -7.8470001,-5.6129999 -12.428,-7.1230001 -12.735,-7.21 -12.68,-7.7010002 -12.357,-7.711 -7.848,-7.9450002 -3.3499999,-6.6830001 0.74199998,-4.8540001 3.596,-3.3929999 6.901,-2.3440001 9.0600004,0.132 9.9399996,1.092 10.657,2.2119999 11.309,3.3659999 c 0.593,1.208 1.089,2.4870003 1.317,3.9560001 0.043,0.2480002 -0.198,0.4689999 -0.441,0.4060002 0,0 0,0 0,0 z"
           id="path253" />
      </g>
    </g>
  </g>
</svg>
